# xmcd
#
# Track frame offsets:
#	150
#	14852
#	28352
#	43200
#	65246
#	79790
#	98232
#	116447
#	129616
#
# Disc length: 2027 seconds
#
# Revision: 0
# Processed by: cddbd v1.5.1PL0 Copyright (c) Steve Scherf et al.
# Submitted via: EasyCDDAExtractor 4.5.2.1
#
DISCID=8507e909
DTITLE=Taylor Taylor - Rituals And Ruins
DYEAR=1996
DGENRE=Country
TTITLE0=I'm Gone
TTITLE1=My Heart Can't Take Two (Of You)
TTITLE2=Things A Fool Will Do
TTITLE3=Power Of Love
TTITLE4=I Do Wish You Well
TTITLE5=They're Still Crazy 'Bout Each Other
TTITLE6=I Did Something Right
TTITLE7=I'd Like To Know How
TTITLE8=So Alone
EXTD=
EXTT0=
EXTT1=
EXTT2=
EXTT3=
EXTT4=
EXTT5=
EXTT6=
EXTT7=
EXTT8=
PLAYORDER=
